<svg xmlns="http://www.w3.org/2000/svg" viewBox="0 160 1024 560"><path fill="#e73d55" fill-rule="evenodd" d="M628 289.045c-24.69 1.961-55.742 11.929-83 26.642-16.356 8.828-53.962 33.43-53.98 35.313-.004.414 6.82 4.743 9.159 5.81.373.17 3.973-2.116 8-5.08 18.756-13.807 39.09-26.001 57.626-34.558 12.189-5.628 36.157-13.556 48.565-16.065 8.606-1.741 10.88-2.67 17.75-7.249 4.334-2.889 7.88-5.389 7.88-5.555 0-.167-.562-.238-1.25-.158-.687.08-5.525.485-10.75.9M185.014 360.75c.038 4.857.946 5.807 5.168 5.404 13.64-1.301 42.683 7.403 62.002 18.581 19.426 11.239 34.315 22.908 41.058 32.179 5.271 7.246 8.096 9.589 14.546 12.06 6.48 2.483 11.101 2.517 18.006.132l5.293-1.828 6.707 4.024c25.348 15.212 48.747 38.741 67.821 68.198 2.137 3.3 4.376 6.45 4.976 7 2.584 2.369 13.942 22.418 22.496 39.709 5.091 10.289 9.883 18.949 10.65 19.243 1.833.704 1.544-.17-6.927-20.952-17.33-42.514-30.401-63.945-52.81-86.59-13.859-14.006-21.557-20.172-39.991-32.037l-10.587-6.815-4.88 2.471c-12.202 6.178-28.15-.081-33.076-12.98-1.614-4.225-5.395-7.487-20.966-18.088C247.303 371.944 213.376 359 192.042 359c-6.045 0-7.04.248-7.028 1.75m128.817 30.78c-1.485.806-3.162 2.943-3.78 4.815-2.086 6.321 2.071 11.655 9.083 11.655 2.917 0 4.248-.665 6.366-3.182 3.357-3.99 2.842-8.1-1.513-12.068-3.352-3.053-6.16-3.391-10.156-1.22M535 456.012c0 1.612 28.682 19.837 37.5 23.828 13.088 5.924 20.622 7.485 36 7.46 13.211-.022 23.73-1.73 29.31-4.76 2.678-1.453 2.668-1.46-2.099-1.5-19.981-.167-42.393-5.305-74.269-17.028-16.314-6-26.442-9.064-26.442-8m-12.987 33.238c.007.688 3.874 5.511 8.594 10.719 7.211 7.958 8.286 9.567 6.736 10.086-1.013.34-5.247 1.747-9.408 3.127l-7.565 2.509-7.227-6.891c-6.612-6.306-24.083-18.8-26.288-18.8-2.233 0 2.302 5.372 14.457 17.125l13.058 12.625-3.629 4.239c-13.894 16.232-12.487 38.797 3.847 61.686 10.353 14.509 30.624 26.57 48.42 28.808l4.507.567 3.862 11.725c2.123 6.449 6.054 16.396 8.734 22.105l4.872 10.38 5.241-.695c2.882-.383 5.314-.779 5.404-.88.09-.102-2.229-5.135-5.153-11.185-6.85-14.171-12.902-31.433-11.205-31.961.677-.211 3.03-.682 5.23-1.048 2.2-.365 8.014-2.526 12.92-4.801l8.92-4.138 17.583 18.119 17.583 18.118 3.737-2.144c2.056-1.18 3.742-2.503 3.747-2.941.006-.437-8.184-9.126-18.199-19.307-15.833-16.097-18.049-18.733-16.985-20.204 3.76-5.203 5.344-8.103 6.39-11.693.64-2.2 1.243-4.122 1.338-4.27.095-.149 3.502 1.281 7.57 3.177 5.776 2.693 43.092 19.038 48.503 21.246 1.314.536 3.717-4.779 3.232-7.148-.228-1.113-6.709-4.203-19.839-9.458-19.425-7.775-36.5-15.214-37.72-16.434-.353-.353-1.455-3.845-2.45-7.761-3.292-12.967-11.856-25.191-24.09-34.389-10.734-8.07-26.42-14.97-39.708-17.467-5.115-.961-6.062-1.636-14.659-10.445C533.795 492.762 527.177 488 523.54 488c-.847 0-1.534.563-1.527 1.25m13.721 30.772c-16.923 4.284-26.458 18.478-23.755 35.364 1.648 10.296 7.117 19.901 16.925 29.723 9.285 9.298 17.756 14.268 29.556 17.339 6.761 1.76 18.907 1.995 25.428.491 10.852-2.501 20.895-9.673 25.107-17.928 11.142-21.841-8.331-51.917-40.495-62.544-8.862-2.928-25.849-4.196-32.766-2.445M357 601.461c0 1.354 2.407 5.996 5.348 10.316 6.032 8.859 20.977 27.374 25.299 31.343 2.695 2.475 3.037 2.543 6.165 1.222l3.312-1.398-3.312-4.199c-1.822-2.31-5.736-6.91-8.698-10.222-2.962-3.313-9.388-11.311-14.281-17.773-7.135-9.426-9.383-11.75-11.364-11.75-1.957 0-2.469.511-2.469 2.461m-44.027 1.071c-1.49 1.796-.755 17.228 1.28 26.878 1.171 5.549 1.583 6.141 6.735 9.679 3.018 2.073 5.565 3.688 5.661 3.59.095-.098-.882-3.329-2.172-7.179-1.289-3.85-3.124-12.4-4.078-19-2.004-13.872-4.152-17.912-7.426-13.968m25.2 14.123c-.574 1.027-.55 3.02.063 5.25 1.645 5.975 10.74 25.508 12.501 26.845 1.771 1.345 8.262 1.738 8.264.5.001-.413-2.221-5.25-4.938-10.75-2.718-5.5-6.29-13.038-7.939-16.75-2.268-5.105-3.489-6.75-5.012-6.75-1.107 0-2.429.745-2.939 1.655"/><path fill="#0c4884" fill-rule="evenodd" d="M361.113 170.064c-8.812 1.569-22.831 6.683-30.34 11.069C321.04 186.817 310 197.756 310 201.715c0 6.29 6.249 8.105 12.706 3.69 5.935-4.059 14.542-8.174 23.02-11.007 6.394-2.137 10.304-2.693 22.021-3.136 15.742-.594 25.308.514 36.076 4.18 14.83 5.048 27.648 13.097 37.734 23.694 7.878 8.276 11.691 13.962 17.039 25.408 4.156 8.892 4.559 9.394 8.063 10.052 3.102.582 3.98.333 5.515-1.563 1.004-1.24 1.826-3.413 1.826-4.83 0-8.023-7.881-28.317-15.1-38.881-11.837-17.325-33.398-31.987-54.944-37.364-9.7-2.421-33.878-3.49-42.843-1.894M354 220.631c-8.422 1.623-18.407 5-25.14 8.503-11.481 5.973-24.86 18.955-24.86 24.123 0 .837.788 2.432 1.75 3.545 3.237 3.744 5.38 3.506 12.794-1.421 17.261-11.473 32.691-15.656 49.932-13.537 21.093 2.592 37.309 11.171 51.979 27.497 7.436 8.275 10.532 9.541 13.99 5.72 2.755-3.044 2.143-8.15-1.898-15.84-9.214-17.534-24.508-30.196-44.047-36.469-5.923-1.901-28.452-3.286-34.5-2.121m493.663 42.165c-20.485 19.264-31.253 25.987-61.121 38.16-17.423 7.101-27.148 12.859-35.338 20.923-11.862 11.679-18.218 24.203-24.113 47.509-2.192 8.665-5.096 17.635-6.453 19.934-11.216 18.987-37.514 31.573-69.638 33.325-24.846 1.356-53.991-5.463-60.901-14.249-5.66-7.195.441-33.064 12.783-54.195 14.016-24 36.208-44.211 65.618-59.761 13.311-7.039 16.187-10.174 14.298-15.592-1.033-2.963-3.28-4.085-12.798-6.395-9.002-2.183-35.906-3.02-49.014-1.524-32.967 3.763-66.149 15.925-101.707 37.276-11.368 6.826-32.887 21.196-42.786 28.57l-3.008 2.24-18.492-9.333c-84.329-42.561-159.854-54.373-218.081-34.105-31.145 10.841-58.291 30.248-68.178 48.742-3.232 6.046-3.179 21.755.113 33.679 13.195 47.778 54.408 98.958 109.403 135.861 4.262 2.86 7.75 5.481 7.75 5.824 0 .344-1.542 5.395-3.427 11.225-5.545 17.152-7.007 27.119-6.908 47.09.07 14.391.456 18.875 2.167 25.242 4.431 16.479 9.979 26.99 19.964 37.824 10.384 11.266 21.461 18.136 37.231 23.087 6.744 2.118 9.326 2.347 26.473 2.346 17.4 0 19.905-.23 29.75-2.73 5.912-1.502 14.179-4.062 18.372-5.69 15.46-6.003 15.803-8.49 4.426-32.079-4.377-9.075-9.305-20.55-10.949-25.5-2.947-8.867-7.473-27.46-6.838-28.094.178-.179 3.867.8 8.196 2.174 10.986 3.489 29.244 7.946 40.787 9.957l9.743 1.697 3.122 5.456c1.717 3.001 6.693 10.446 11.059 16.544 28.025 39.151 68.961 73.544 97.832 82.196 10.1 3.026 18.92 3.633 29.573 2.034 5.364-.805 10.141-1.464 10.615-1.464.474 0 3.664 2.603 7.087 5.785C625.343 707.07 634.136 712 641.416 712c5.873 0 15.03-2.953 25.418-8.197 11.347-5.729 18.606-11.702 19.743-16.244.917-3.666-.773-10.223-4.633-17.969-1.619-3.25-2.944-6.077-2.944-6.282 0-.205 2.383 1.426 5.295 3.625 11.276 8.514 18.182 9.267 27.558 3.006 7.77-5.188 16.934-15.187 21.123-23.045 5.627-10.558 4.262-16.596-7.601-33.61-14.073-20.185-37.381-45.347-61.625-66.528-7.562-6.607-13.739-12.293-13.726-12.634.013-.342 3.02-2.647 6.681-5.122 19.378-13.098 40.059-31.713 58.632-52.775 17.567-19.923 19.914-20.273 46.719-6.965 27.135 13.472 39.48 16.315 67.134 15.46 12.509-.387 21.331-1.272 31.81-3.191 7.975-1.461 18.933-2.92 24.352-3.243 8.155-.487 10.178-.939 11.75-2.626 2.643-2.837 2.375-6.648-1.03-14.65-12.369-29.068-43.091-52.53-79.072-60.386-4.125-.901-9.466-1.975-11.869-2.387l-4.368-.748 8.368-7.299c18.072-15.762 33.563-35.663 42.237-54.264 9.654-20.704 15.062-44.69 14.467-64.164-.309-10.088-.519-11.092-2.696-12.852-1.311-1.061-3.906-1.91-5.836-1.91-2.859 0-4.57 1.029-9.64 5.796M628 289.045c-24.69 1.961-55.742 11.929-83 26.642-16.356 8.828-53.962 33.43-53.98 35.313-.004.414 6.82 4.743 9.159 5.81.373.17 3.973-2.116 8-5.08 18.756-13.807 39.09-26.001 57.626-34.558 12.189-5.628 36.157-13.556 48.565-16.065 8.606-1.741 10.88-2.67 17.75-7.249 4.334-2.889 7.88-5.389 7.88-5.555 0-.167-.562-.238-1.25-.158-.687.08-5.525.485-10.75.9m-299.653 44.984c-8.395 1.51-15.72 4.728-19.398 8.524-2.868 2.958-3.449 4.298-3.449 7.947 0 7.325 6.541 12.726 24.5 20.232 19.14 8 40.068 12.626 57.5 12.71 10.648.051 12.538-.207 16.777-2.294 7.975-3.927 9.487-9.215 5.134-17.95-5.908-11.856-24.901-22.753-48.201-27.654-9.03-1.899-26.299-2.696-32.863-1.515M185 360.487c0 2.357 4.853 20.462 7.107 26.513 9.567 25.684 33.035 58.14 59.184 81.851 18.799 17.046 50.48 39.543 63.209 44.885 12.805 5.374 31.854 9.273 45.192 9.251 15.49-.026 34.457-5.935 47.916-14.927l3.107-2.076 7.083 11.758c3.896 6.467 11.01 19.726 15.81 29.465 4.8 9.739 9.356 17.949 10.125 18.244 1.838.705 1.551-.162-6.923-20.951-17.33-42.514-30.401-63.945-52.81-86.59-13.859-14.006-21.557-20.172-39.991-32.037l-10.587-6.815-4.88 2.471c-12.202 6.178-28.15-.081-33.076-12.98-1.614-4.225-5.395-7.487-20.966-18.088C247.303 371.944 213.376 359 192.042 359c-5.567 0-7.042.312-7.042 1.487m128.831 31.043c-1.485.806-3.162 2.943-3.78 4.815-2.086 6.321 2.071 11.655 9.083 11.655 2.917 0 4.248-.665 6.366-3.182 3.357-3.99 2.842-8.1-1.513-12.068-3.352-3.053-6.16-3.391-10.156-1.22M535 456.012c0 1.612 28.682 19.837 37.5 23.828 13.088 5.924 20.622 7.485 36 7.46 13.211-.022 23.73-1.73 29.31-4.76 2.678-1.453 2.668-1.46-2.099-1.5-19.981-.167-42.393-5.305-74.269-17.028-16.314-6-26.442-9.064-26.442-8m-12.987 33.238c.007.688 3.874 5.511 8.594 10.719 7.211 7.958 8.286 9.567 6.736 10.086-1.013.34-5.247 1.747-9.408 3.127l-7.565 2.509-7.227-6.891c-6.612-6.306-24.083-18.8-26.288-18.8-2.233 0 2.302 5.372 14.457 17.125l13.058 12.625-3.629 4.239c-13.894 16.232-12.487 38.797 3.847 61.686 10.353 14.509 30.624 26.57 48.42 28.808l4.507.567 3.862 11.725c2.123 6.449 6.054 16.396 8.734 22.105l4.872 10.38 5.241-.695c2.882-.383 5.314-.779 5.404-.88.09-.102-2.229-5.135-5.153-11.185-6.85-14.171-12.902-31.433-11.205-31.961.677-.211 3.03-.682 5.23-1.048 2.2-.365 8.014-2.526 12.92-4.801l8.92-4.138 17.583 18.119 17.583 18.118 3.737-2.144c2.056-1.18 3.742-2.503 3.747-2.941.006-.437-8.184-9.126-18.199-19.307-15.833-16.097-18.049-18.733-16.985-20.204 3.76-5.203 5.344-8.103 6.39-11.693.64-2.2 1.243-4.122 1.338-4.27.095-.149 3.502 1.281 7.57 3.177 5.776 2.693 43.092 19.038 48.503 21.246 1.314.536 3.717-4.779 3.232-7.148-.228-1.113-6.709-4.203-19.839-9.458-19.425-7.775-36.5-15.214-37.72-16.434-.353-.353-1.455-3.845-2.45-7.761-3.292-12.967-11.856-25.191-24.09-34.389-10.734-8.07-26.42-14.97-39.708-17.467-5.115-.961-6.062-1.636-14.659-10.445C533.795 492.762 527.177 488 523.54 488c-.847 0-1.534.563-1.527 1.25m13.721 30.772c-16.923 4.284-26.458 18.478-23.755 35.364 1.648 10.296 7.117 19.901 16.925 29.723 9.285 9.298 17.756 14.268 29.556 17.339 6.761 1.76 18.907 1.995 25.428.491 10.852-2.501 20.895-9.673 25.107-17.928 11.142-21.841-8.331-51.917-40.495-62.544-8.862-2.928-25.849-4.196-32.766-2.445M357 601.461c0 1.354 2.407 5.996 5.348 10.316 6.032 8.859 20.977 27.374 25.299 31.343 2.695 2.475 3.037 2.543 6.165 1.222l3.312-1.398-3.312-4.199c-1.822-2.31-5.736-6.91-8.698-10.222-2.962-3.313-9.388-11.311-14.281-17.773-7.135-9.426-9.383-11.75-11.364-11.75-1.957 0-2.469.511-2.469 2.461m-44.027 1.071c-1.49 1.796-.755 17.228 1.28 26.878 1.171 5.549 1.583 6.141 6.735 9.679 3.018 2.073 5.565 3.688 5.661 3.59.095-.098-.882-3.329-2.172-7.179-1.289-3.85-3.124-12.4-4.078-19-2.004-13.872-4.152-17.912-7.426-13.968m378.748 13.716c-2.975 4.539-8.468 11.539-12.208 15.556l-6.8 7.304 3.393 3.522c3.996 4.146 14.99 12.404 19.705 14.801 4.644 2.361 8.719.799 15.612-5.985 9.203-9.057 10.816-14.464 6.335-21.235-3.998-6.042-13.194-16.543-17.086-19.512l-3.544-2.703-5.407 8.252m-353.548.407c-.574 1.027-.55 3.02.063 5.25 1.645 5.975 10.74 25.508 12.501 26.845 1.771 1.345 8.262 1.738 8.264.5.001-.413-2.221-5.25-4.938-10.75-2.718-5.5-6.29-13.038-7.939-16.75-2.268-5.105-3.489-6.75-5.012-6.75-1.107 0-2.429.745-2.939 1.655M642.5 659.074c-3.85 2.105-12.274 5.537-18.72 7.627-6.445 2.089-11.733 4.336-11.75 4.992-.046 1.81 11.407 14.689 17.076 19.202 6.86 5.462 10.49 6.538 17.293 5.126 6.444-1.338 20.337-7.887 22.945-10.815 2.507-2.816 1.561-6.565-3.502-13.88-4.642-6.707-13.785-16.384-15.308-16.203-.569.068-4.184 1.845-8.034 3.951"/></svg>
